<?xml version="1.0" encoding="UTF-8"?>
<svg fill="none" stroke-width=".1%" viewBox="-.1 -.14142 1.2 1.6971" xmlns="http://www.w3.org/2000/svg">
 <polygon points="0 0 0 1.4142 1 1.4142 1 0" stroke="#000"/>
 <polygon points="0.016667 0 0 1.4141 0.008333 1.4142 0.025 9.8213e-5" stroke="red"/>
 <polygon points="0.033333 0 0 1.4138 0.016664 1.4142 0.049998 3.9289e-4" stroke="red"/>
 <polygon points="0.05 0 0 1.4133 0.024992 1.4142 0.074992 8.8416e-4" stroke="red"/>
 <polygon points="0.066667 0 0 1.4126 0.033315 1.4142 0.099981 0.0015722" stroke="red"/>
 <polygon points="0.083333 0 0 1.4118 0.04163 1.4142 0.12496 0.0024574" stroke="red"/>
 <polygon points="0.1 0 0 1.4107 0.049937 1.4142 0.14994 0.00354" stroke="red"/>
 <polygon points="0.11667 0 0 1.4094 0.058234 1.4142 0.1749 0.0048205" stroke="red"/>
 <polygon points="0.13333 0 0 1.4079 0.066518 1.4142 0.19985 0.0062994" stroke="red"/>
 <polygon points="0.15 0 0 1.4062 0.074788 1.4142 0.22479 0.0079775" stroke="red"/>
 <polygon points="0.16667 0 0 1.4044 0.083042 1.4142 0.24971 0.0098553" stroke="red"/>
 <polygon points="0.18333 0 0 1.4023 0.091278 1.4142 0.27461 0.011934" stroke="red"/>
 <polygon points="0.2 0 0 1.4 0.099495 1.4142 0.29949 0.014214" stroke="red"/>
 <polygon points="0.21667 0 0 1.3975 0.10769 1.4142 0.32436 0.016696" stroke="red"/>
 <polygon points="0.23333 0 0 1.3948 0.11586 1.4142 0.3492 0.019382" stroke="red"/>
 <polygon points="0.25 0 0 1.3919 0.12401 1.4142 0.37401 0.022272" stroke="red"/>
 <polygon points="0.26667 0 0 1.3888 0.13213 1.4142 0.39879 0.025369" stroke="red"/>
 <polygon points="0.28333 0 0 1.3855 0.14022 1.4142 0.42355 0.028673" stroke="red"/>
 <polygon points="0.3 0 0 1.382 0.14827 1.4142 0.44827 0.032186" stroke="red"/>
 <polygon points="0.31667 0 0 1.3783 0.1563 1.4142 0.47296 0.035909" stroke="red"/>
 <polygon points="0.33333 0 0 1.3744 0.16429 1.4142 0.49762 0.039845" stroke="red"/>
 <polygon points="0.35 0 0 1.3702 0.17223 1.4142 0.52223 0.043995" stroke="red"/>
 <polygon points="0.36667 0 0 1.3659 0.18014 1.4142 0.54681 0.04836" stroke="red"/>
 <polygon points="0.38333 0 0 1.3613 0.18801 1.4142 0.57134 0.052944" stroke="red"/>
 <polygon points="0.4 0 0 1.3565 0.19583 1.4142 0.59583 0.057748" stroke="red"/>
 <polygon points="0.41667 0 0 1.3514 0.2036 1.4142 0.62027 0.062774" stroke="red"/>
 <polygon points="0.43333 0 0 1.3462 0.21133 1.4142 0.64466 0.068026" stroke="red"/>
 <polygon points="0.45 0 0 1.3407 0.219 1.4142 0.669 0.073505" stroke="red"/>
 <polygon points="0.46667 0 0 1.335 0.22661 1.4142 0.69328 0.079215" stroke="red"/>
 <polygon points="0.48333 0 0 1.3291 0.23416 1.4142 0.7175 0.085158" stroke="red"/>
 <polygon points="0.5 0 0 1.3229 0.24166 1.4142 0.74166 0.091338" stroke="red"/>
 <polygon points="0.51667 0 0 1.3165 0.24909 1.4142 0.76575 0.097758" stroke="red"/>
 <polygon points="0.53333 0 0 1.3098 0.25644 1.4142 0.78978 0.10442" stroke="red"/>
 <polygon points="0.55 0 0 1.3029 0.26373 1.4142 0.81373 0.11133" stroke="red"/>
 <polygon points="0.56667 0 0 1.2957 0.27094 1.4142 0.83761 0.11849" stroke="red"/>
 <polygon points="0.58333 0 0 1.2883 0.27808 1.4142 0.86141 0.12591" stroke="red"/>
 <polygon points="0.6 0 0 1.2806 0.28513 1.4142 0.88513 0.13359" stroke="red"/>
 <polygon points="0.61667 0 0 1.2727 0.29209 1.4142 0.90876 0.14153" stroke="red"/>
 <polygon points="0.63333 0 0 1.2645 0.29896 1.4142 0.9323 0.14974" stroke="red"/>
 <polygon points="0.65 0 0 1.256 0.30574 1.4142 0.95574 0.15823" stroke="red"/>
 <polygon points="0.66667 0 0 1.2472 0.31242 1.4142 0.97908 0.16699" stroke="red"/>
 <polygon points="0.68333 0 0 1.2382 0.31667 1.4129 1 0.17477" stroke="blue"/>
 <polygon points="0.7 0 0 1.2288 0.3 1.3997 1 0.1709" stroke="blue"/>
 <polygon points="0.71667 0 0 1.2192 0.28333 1.3857 1 0.16655" stroke="blue"/>
 <polygon points="0.73333 0 0 1.2092 0.26667 1.3709 1 0.16172" stroke="blue"/>
 <polygon points="0.75 0 0 1.199 0.25 1.3553 1 0.15639" stroke="blue"/>
 <polygon points="0.76667 0 0 1.1884 0.23333 1.3389 1 0.15053" stroke="blue"/>
 <polygon points="0.78333 0 0 1.1775 0.21667 1.3216 1 0.14414" stroke="blue"/>
 <polygon points="0.8 0 0 1.1662 0.2 1.3034 1 0.1372" stroke="blue"/>
 <polygon points="0.81667 0 0 1.1546 0.18333 1.2843 1 0.12968" stroke="blue"/>
 <polygon points="0.83333 0 0 1.1426 0.16667 1.2642 1 0.12155" stroke="blue"/>
 <polygon points="0.85 0 0 1.1303 0.15 1.2431 1 0.11281" stroke="blue"/>
 <polygon points="0.86667 0 0 1.1175 0.13333 1.2209 1 0.1034" stroke="blue"/>
 <polygon points="0.88333 0 0 1.1044 0.11667 1.1977 1 0.093313" stroke="blue"/>
 <polygon points="0.9 0 0 1.0909 0.1 1.1734 1 0.082503" stroke="blue"/>
 <polygon points="0.91667 0 0 1.0769 0.083333 1.1478 1 0.070934" stroke="blue"/>
 <polygon points="0.93333 0 0 1.0625 0.066667 1.1211 1 0.058563" stroke="blue"/>
 <polygon points="0.95 0 0 1.0476 0.05 1.093 1 0.045341" stroke="blue"/>
 <polygon points="0.96667 0 0 1.0323 0.033333 1.0635 1 0.031215" stroke="blue"/>
 <polygon points="0.98333 0 0 1.0164 0.016667 1.0325 1 0.016125" stroke="blue"/>
</svg>
